<?xml version="1.0" standalone="no"?>
<!DOCTYPE svg PUBLIC "-//W3C//DTD SVG 20010904//EN"
 "http://www.w3.org/TR/2001/REC-SVG-20010904/DTD/svg10.dtd">
<svg version="1.0" xmlns="http://www.w3.org/2000/svg"
 width="512.000000pt" height="512.000000pt" viewBox="0 0 512.000000 512.000000"
 preserveAspectRatio="xMidYMid meet">
<metadata>
Created by potrace 1.11, written by Peter Selinger 2001-2013
</metadata>
<g transform="translate(0.000000,512.000000) scale(0.100000,-0.100000)"
fill="#000000" stroke="none">
<path d="M1764 4877 c-59 -12 -110 -53 -139 -110 -41 -84 -28 -170 37 -236 60
-62 92 -68 388 -66 243 1 257 2 302 23 131 64 157 239 50 340 -56 52 -78 55
-348 56 -138 1 -268 -2 -290 -7z"/>
<path d="M3227 4484 c-1 -1 -33 -5 -72 -9 -99 -9 -279 -49 -388 -86 -243 -81
-492 -236 -676 -418 l-56 -56 -925 -1 c-838 -1 -929 -3 -963 -18 -126 -55
-181 -204 -121 -325 29 -57 80 -102 139 -122 32 -10 151 -13 561 -14 469 -1
524 -3 547 -18 44 -29 47 -102 4 -139 -25 -22 -8 -20 -162 -23 -109 -2 -137
-6 -176 -24 -90 -42 -133 -113 -133 -216 0 -58 4 -78 26 -116 56 -94 118 -122
282 -124 67 -1 131 -5 144 -9 26 -9 52 -54 52 -90 0 -22 -39 -74 -58 -77 -4
-1 -185 -2 -402 -4 -283 -1 -404 -5 -425 -14 -130 -53 -190 -207 -129 -330 28
-55 84 -106 136 -123 21 -6 180 -11 423 -12 355 -2 392 -3 417 -20 29 -19 44
-63 32 -98 -7 -24 -40 -57 -58 -59 -6 -1 -150 -2 -321 -4 -213 -1 -319 -6
-340 -14 -55 -22 -106 -64 -133 -110 -22 -38 -27 -58 -27 -116 1 -80 17 -119
73 -173 70 -69 29 -66 838 -66 l731 -1 63 -55 c35 -30 75 -65 89 -78 56 -50
251 -173 341 -216 558 -266 1165 -238 1703 77 136 80 346 261 442 382 22 28
43 52 46 55 11 9 107 155 132 201 57 102 75 140 110 225 31 78 80 242 94 314
34 186 38 484 9 635 -8 44 -18 94 -21 110 -32 165 -145 423 -266 601 -82 122
-236 293 -329 365 -17 13 -41 33 -53 43 -35 30 -175 120 -257 164 -143 78
-400 165 -550 186 -106 15 -383 29 -393 20z"/>
<path d="M193 3249 c-84 -17 -161 -89 -184 -171 -33 -124 45 -262 166 -293 48
-12 219 -12 275 -1 52 11 111 56 145 111 26 42 30 58 30 119 0 60 -4 79 -28
118 -31 53 -79 94 -128 109 -39 12 -229 18 -276 8z"/>
<path d="M443 849 c-50 -10 -93 -39 -121 -81 -22 -34 -27 -53 -27 -102 0 -77
28 -125 93 -164 l47 -27 471 0 471 0 48 30 c60 37 83 75 91 146 7 70 -23 131
-86 174 l-44 29 -458 1 c-251 0 -470 -3 -485 -6z"/>
<path d="M2550 607 c-84 -17 -149 -117 -137 -211 7 -53 54 -117 102 -141 38
-18 63 -19 510 -19 467 0 470 0 512 22 65 34 98 91 98 167 0 76 -33 133 -98
167 -41 21 -49 22 -494 22 -248 1 -470 -3 -493 -7z"/>
</g>
</svg>
