<svg xmlns="http://www.w3.org/2000/svg" xml:space="preserve" viewBox="0 0 512 512">
  <path fill="#eff2fa" d="M485.517 52.966H26.483C11.857 52.966 0 64.822 0 79.448v353.103c0 14.626 11.857 26.483 26.483 26.483h459.034c14.626 0 26.483-11.857 26.483-26.483V79.448c0-14.626-11.857-26.482-26.483-26.482z"/>
  <g fill="#000">
    <circle cx="35.31" cy="88.276" r="8.828"/>
    <circle cx="61.793" cy="88.276" r="8.828"/>
    <circle cx="88.276" cy="88.276" r="8.828"/>
    <path d="M476.69 97.103H123.586c-4.875 0-8.828-3.953-8.828-8.828s3.953-8.828 8.828-8.828H476.69c4.875 0 8.828 3.953 8.828 8.828-.001 4.876-3.953 8.828-8.828 8.828zm8.827 344.276H26.483c-4.875 0-8.828-3.953-8.828-8.828V132.414c0-4.875 3.953-8.828 8.828-8.828h459.034c4.875 0 8.828 3.953 8.828 8.828v300.138c0 4.875-3.953 8.827-8.828 8.827z"/>
  </g>
  <g fill="#fff">
    <path d="M167.724 308.966h-8.828V220.69c0-4.875-3.953-8.828-8.828-8.828s-8.828 3.953-8.828 8.828v88.276H98.854l15.762-86.697c.872-4.797-2.31-9.391-7.106-10.264-4.794-.875-9.393 2.31-10.264 7.106l-17.654 97.103c-.468 2.575.231 5.226 1.908 7.235 1.677 2.009 4.16 3.171 6.777 3.171h52.966v17.655c0 4.875 3.953 8.828 8.828 8.828s8.828-3.953 8.828-8.828V326.62h8.828c4.875 0 8.828-3.953 8.828-8.828s-3.957-8.826-8.831-8.826zm256 0h-8.828V220.69c0-4.875-3.953-8.828-8.828-8.828s-8.828 3.953-8.828 8.828v88.276h-42.388l15.763-86.697c.872-4.797-2.31-9.393-7.106-10.264-4.801-.875-9.393 2.31-10.264 7.106l-17.655 97.103c-.468 2.575.231 5.226 1.908 7.235 1.677 2.009 4.16 3.171 6.777 3.171h52.966v17.655c0 4.875 3.953 8.828 8.828 8.828s8.828-3.953 8.828-8.828V326.62h8.828c4.875 0 8.828-3.953 8.828-8.828s-3.955-8.826-8.829-8.826zm-114.76 44.137c-1.35 0-2.701-.309-3.948-.931l-13.707-6.854-13.707 6.854c-2.487 1.242-5.409 1.242-7.896 0l-13.707-6.854-13.707 6.854c-2.487 1.242-5.409 1.242-7.896 0l-13.707-6.854-13.707 6.854c-2.739 1.368-5.986 1.223-8.589-.386-2.602-1.609-4.186-4.449-4.186-7.509v-70.621c0-34.072 27.72-61.793 61.793-61.793s61.793 27.721 61.793 61.793v70.621c0 3.06-1.585 5.901-4.186 7.509-1.419.875-3.029 1.317-4.643 1.317zm-52.965-26.482c1.353 0 2.705.31 3.948.931l13.707 6.854 13.707-6.854c2.487-1.242 5.409-1.242 7.896 0l4.879 2.44v-56.337c0-24.338-19.799-44.138-44.137-44.138-24.339 0-44.139 19.8-44.139 44.138v56.338l4.879-2.44c2.487-1.242 5.409-1.242 7.896 0l13.707 6.854 13.707-6.854c1.245-.622 2.598-.932 3.95-.932z"/>
    <path d="M238.344 282.483c-4.875 0-8.828-3.953-8.828-8.828v-8.828c0-4.875 3.953-8.828 8.828-8.828s8.828 3.953 8.828 8.828v8.828c-.001 4.875-3.953 8.828-8.828 8.828zm35.31 0c-4.875 0-8.828-3.953-8.828-8.828v-8.828c0-4.875 3.953-8.828 8.828-8.828s8.828 3.953 8.828 8.828v8.828c0 4.875-3.953 8.828-8.828 8.828z"/>
  </g>
</svg>