<svg xmlns="http://www.w3.org/2000/svg" viewBox="0 0 48 48">
  <g data-name="Layer 2">
    <path fill="none" d="M0 0h48v48H0z" data-name="invisible box"/>
    <path d="M40.5 21.8a9.1 9.1 0 0 0-3.4-6.5 9.8 9.8 0 0 0-7.5-2.3 12.2 12.2 0 0 0-10.1-6 11.6 11.6 0 0 0-8.9 4 12.4 12.4 0 0 0-3.2 8.4 11.8 11.8 0 0 0-5.2 8.2 11.5 11.5 0 0 0 3.1 10.2A12.4 12.4 0 0 0 14 41h20.5c7.7 0 11.3-5.1 11.5-9.9a9.9 9.9 0 0 0-5.5-9.3Zm-10.1 9.8a1.9 1.9 0 0 1 0 2.8 1.9 1.9 0 0 1-2.8 0L24 30.8l-3.6 3.6a1.9 1.9 0 0 1-2.8 0 1.9 1.9 0 0 1 0-2.8l3.6-3.6-3.6-3.6a2 2 0 0 1 2.8-2.8l3.6 3.6 3.6-3.6a2 2 0 0 1 2.8 2.8L26.8 28Z" data-name="icons Q2"/>
  </g>
</svg>