<svg xmlns="http://www.w3.org/2000/svg" fill="none" viewBox="0 0 24 24">
  <path stroke="#000" stroke-width="2" d="M3.15838 13.9306c-.71301-1.1883-.71301-2.6729 0-3.8612.21758-.36266.57803-.61668.99272-.69962l1.69303-.33861c.10086-.02017.19178-.07426.25763-.15329l2.06909-2.4829c1.18255-1.41906 1.77383-2.1286 2.30145-1.93756C11 4.64846 11 5.57207 11 7.41928v9.16142c0 1.8472 0 2.7708-.5277 2.9619-.52762.191-1.1189-.5185-2.30145-1.9376l-2.06909-2.4829c-.06585-.079-.15677-.1331-.25763-.1533l-1.69303-.3386c-.41469-.0829-.77514-.3369-.99272-.6996Z"/>
  <path stroke="#000" stroke-linecap="round" stroke-width="2" d="M15.5355 8.46447c.9329.93285 1.4593 2.19663 1.4645 3.51583.0052 1.3193-.5112 2.5871-1.4367 3.5273m4.0936-9.16446c1.4925 1.49258 2.3347 3.51455 2.343 5.62536.0084 2.1108-.8179 4.1393-2.2987 5.6436"/>
</svg>