<svg xmlns="http://www.w3.org/2000/svg" fill="none" viewBox="0 0 24 24">
  <g fill="#000" clip-path="url(#a)">
    <path d="M12 0c.5523 0 1 .447715 1 1v3c0 .55228-.4477 1-1 1s-1-.44772-1-1V1c0-.552285.4477-1 1-1Z"/>
    <path fill-rule="evenodd" d="M7 12c0-2.76142 2.23858-5 5-5 2.7614 0 5 2.23858 5 5 0 2.7614-2.2386 5-5 5-2.76142 0-5-2.2386-5-5Zm5-3c-1.6569 0-3 1.3431-3 3s1.3431 3 3 3 3-1.3431 3-3-1.3431-3-3-3Z" clip-rule="evenodd"/>
    <path d="M20.4852 4.92894c.3905-.39053.3905-1.02369 0-1.41422-.3905-.39052-1.0237-.39052-1.4142 0l-2.1214 2.12133c-.3905.39052-.3905 1.02369 0 1.41421.3906.39052 1.0237.39052 1.4143 0l2.1213-2.12132ZM24 12c0 .5523-.4477 1-1 1h-3c-.5523 0-1-.4477-1-1s.4477-1 1-1h3c.5523 0 1 .4477 1 1Zm-4.9289 8.4853c.3905.3905 1.0237.3905 1.4142 0 .3905-.3905.3905-1.0237 0-1.4142l-2.1213-2.1213c-.3906-.3906-1.0237-.3906-1.4143 0-.3905.3905-.3905 1.0237 0 1.4142l2.1214 2.1213ZM12 24c-.5523 0-1-.4477-1-1v-3c0-.5523.4477-1 1-1s1 .4477 1 1v3c0 .5523-.4477 1-1 1Zm-8.48518-4.9289c-.39053.3905-.39053 1.0237 0 1.4142.39052.3905 1.02369.3905 1.41421 0l2.12132-2.1213c.39052-.3906.39052-1.0237 0-1.4143-.39052-.3905-1.02369-.3905-1.41421 0l-2.12132 2.1214ZM0 12c0-.5523.447715-1 1-1h3c.55228 0 1 .4477 1 1s-.44772 1-1 1H1c-.552285 0-1-.4477-1-1Zm4.92894-8.4853c-.39053-.39053-1.02369-.39053-1.41422 0-.39052.39052-.39052 1.02368 0 1.41421l2.12133 2.12132c.39052.39052 1.02369.39052 1.41421 0 .39052-.39053.39052-1.02369 0-1.41422L4.92894 3.5147Z"/>
  </g>
  <defs>
    <clipPath id="a">
      <path fill="#fff" d="M0 0h24v24H0z"/>
    </clipPath>
  </defs>
</svg>