<svg xmlns="http://www.w3.org/2000/svg" xml:space="preserve" viewBox="0 0 512.014 512.014">
  <path d="M234.674 341.341v-192c0-11.776-9.536-21.333-21.333-21.333h-192c-11.797 0-21.333 9.557-21.333 21.333v192c0 11.776 9.536 21.333 21.333 21.333h192c11.797 0 21.333-9.557 21.333-21.333zm-106.667-42.667H85.34c-11.797 0-21.333-9.557-21.333-21.333s9.536-21.333 21.333-21.333h42.667c11.797 0 21.333 9.557 21.333 21.333s-9.536 21.333-21.333 21.333zm21.333-64h-64c-11.797 0-21.333-9.557-21.333-21.333s9.536-21.333 21.333-21.333h64c11.797 0 21.333 9.557 21.333 21.333s-9.535 21.333-21.333 21.333zm-6.5-133.999c40.981-39.659 133.376-46.848 192.597-21.632l-6.507 2.176c-11.179 3.733-17.216 15.808-13.483 26.987 2.965 8.939 11.285 14.592 20.224 14.592 2.24 0 4.501-.363 6.741-1.109l48.341-16.107c.235-.085.405-.277.64-.363 1.259-.469 2.325-1.301 3.499-2.027 1.301-.789 2.645-1.472 3.712-2.496.192-.171.427-.235.619-.405.725-.747 1.024-1.685 1.621-2.517.917-1.237 1.856-2.389 2.496-3.797.576-1.28.789-2.624 1.088-3.968.299-1.323.683-2.56.725-3.904.064-1.579-.277-3.072-.555-4.629-.192-.96-.043-1.92-.363-2.88l-21.333-64c-3.733-11.179-15.68-17.237-26.987-13.483-11.157 3.712-17.195 15.808-13.483 26.987l3.051 9.088C270.648 8.217 165.88 19.011 113.165 70.019c-8.448 8.171-8.683 21.696-.491 30.165 8.214 8.449 21.697 8.705 30.166.491zm226.334 310.667c-40.981 39.659-133.376 46.848-192.597 21.632l22.187-7.403c11.157-3.712 17.195-15.808 13.483-26.987-3.733-11.157-15.723-17.237-26.987-13.483l-64 21.333c-.256.085-.405.277-.64.363-1.344.491-2.475 1.365-3.712 2.133-1.216.768-2.475 1.408-3.499 2.389-.192.171-.427.213-.619.405-.725.747-1.024 1.685-1.621 2.517-.917 1.237-1.856 2.389-2.496 3.797-.576 1.28-.789 2.624-1.088 3.968-.299 1.301-.683 2.539-.725 3.904-.064 1.579.277 3.072.555 4.629.192.96.043 1.92.363 2.88l21.333 64c2.987 8.939 11.285 14.592 20.224 14.592 2.24 0 4.501-.341 6.763-1.109 11.157-3.712 17.195-15.808 13.483-26.987l-3.051-9.088c27.136 10.496 58.069 15.936 89.173 15.936 54.699 0 109.525-16.256 143.147-48.768 8.448-8.171 8.683-21.696.491-30.165-8.194-8.445-21.676-8.68-30.167-.488zm121.5-283.334h-192c-11.797 0-21.333 9.557-21.333 21.333v192c0 11.776 9.536 21.333 21.333 21.333h192c11.797 0 21.333-9.557 21.333-21.333v-192c0-11.776-9.536-21.333-21.333-21.333zM405.34 298.674h-42.667c-11.797 0-21.333-9.557-21.333-21.333s9.536-21.333 21.333-21.333h42.667c11.797 0 21.333 9.557 21.333 21.333s-9.535 21.333-21.333 21.333zm21.334-64h-64c-11.797 0-21.333-9.557-21.333-21.333s9.536-21.333 21.333-21.333h64c11.797 0 21.333 9.557 21.333 21.333s-9.536 21.333-21.333 21.333z"/>
</svg>